<svg width="250" height="250" viewBox="-15 0 100 100" fill="none" xmlns="http://www.w3.org/2000/svg">
<path fill-rule="evenodd" clip-rule="evenodd" d="M48.8138 5.87436C48.8138 6.33462 48.6774 6.78456 48.4216 7.16725C48.1659 7.54994 47.8025 7.8482 47.3773 8.02434C46.952 8.20047 46.4841 8.24658 46.0327 8.15678C45.5813 8.06699 45.1667 7.84533 44.8412 7.51988C44.5158 7.19442 44.2941 6.77978 44.2043 6.32836C44.1145 5.87695 44.1606 5.40902 44.3368 4.98379C44.5129 4.55857 44.8112 4.19515 45.1938 3.93944C45.5765 3.68373 46.0265 3.54723 46.4867 3.54723C47.1039 3.54723 47.6958 3.79243 48.1322 4.22885C48.5687 4.66527 48.8138 5.25717 48.8138 5.87436V5.87436ZM51.1326 6.0928C51.0947 6.91065 50.8417 7.70402 50.3992 8.39286C49.9567 9.0817 49.3403 9.64163 48.6122 10.0161C54.1227 14.114 57.8752 20.1481 59.1136 26.9027C60.3519 33.6573 58.9841 40.6302 55.2857 46.4164C51.5874 52.2026 45.8333 56.3719 39.1831 58.0843C32.5329 59.7967 25.4808 58.9249 19.4478 55.6444C13.4149 52.364 8.84947 46.9189 6.67161 40.4062C4.49376 33.8935 4.86531 26.7974 7.7114 20.5478C10.5575 14.2982 15.6665 9.35959 22.0091 6.72714C28.3517 4.09469 35.4563 3.96411 41.8913 6.36164C41.806 5.54749 41.9366 4.72523 42.2699 3.97754C42.6032 3.22985 43.1274 2.58307 43.79 2.10225C36.2004 -0.793462 27.7937 -0.694452 20.2744 2.37925C12.7552 5.45295 6.6864 11.2712 3.29859 18.6543C-0.0892075 26.0373 -0.542384 34.4324 2.03096 42.1372C4.60431 49.8421 10.0116 56.2799 17.1562 60.1451C24.3008 64.0104 32.6481 65.0138 40.5052 62.9519C48.3624 60.89 55.1413 55.9172 59.4674 49.0418C63.7934 42.1663 65.3428 33.903 63.8012 25.9274C62.2597 17.9518 57.7427 10.861 51.1662 6.0928H51.1326Z" fill="#11375F"/>
<path fill-rule="evenodd" clip-rule="evenodd" d="M45.032 15.7988H19.8286C19.3303 15.7977 18.8367 15.8949 18.376 16.0849C17.9154 16.2748 17.4967 16.5537 17.144 16.9056C16.7912 17.2576 16.5114 17.6756 16.3205 18.1359C16.1295 18.5961 16.0312 19.0895 16.0313 19.5878V36.5161C16.0312 37.0144 16.1295 37.5078 16.3205 37.968C16.5114 38.4282 16.7912 38.8463 17.144 39.1982C17.4967 39.5502 17.9154 39.8291 18.376 40.019C18.8367 40.2089 19.3303 40.3061 19.8286 40.305H25.785C25.9098 40.305 26.0294 40.3546 26.1176 40.4428C26.2059 40.531 26.2554 40.6507 26.2554 40.7754V47.8072C26.2554 47.8814 26.2759 47.9542 26.3145 48.0175C26.3532 48.0808 26.4086 48.1322 26.4746 48.1661C26.5406 48.2 26.6147 48.215 26.6886 48.2095C26.7626 48.2039 26.8337 48.1781 26.8939 48.1349L38.1683 40.2462C38.2458 40.1887 38.3406 40.1591 38.4371 40.1622H45.0152C46.0223 40.1622 46.9882 39.7621 47.7003 39.05C48.4124 38.3378 48.8125 37.3719 48.8125 36.3648V19.5625C48.8059 18.5635 48.4049 17.6075 47.6969 16.9026C46.9888 16.1977 46.0311 15.801 45.032 15.7988ZM25.9698 29.3751C25.5727 29.3751 25.1845 29.2573 24.8543 29.0367C24.5241 28.8161 24.2667 28.5025 24.1148 28.1356C23.9628 27.7687 23.923 27.365 24.0005 26.9755C24.078 26.586 24.2692 26.2282 24.55 25.9474C24.8308 25.6666 25.1886 25.4754 25.5781 25.3979C25.9676 25.3204 26.3713 25.3602 26.7382 25.5122C27.1051 25.6642 27.4187 25.9215 27.6393 26.2517C27.8599 26.5819 27.9777 26.9701 27.9777 27.3672C27.9777 27.6309 27.9257 27.892 27.8248 28.1356C27.7239 28.3792 27.576 28.6006 27.3896 28.787C27.2031 28.9735 26.9818 29.1214 26.7382 29.2223C26.4946 29.3232 26.2335 29.3751 25.9698 29.3751V29.3751ZM32.4387 29.3751C32.0416 29.3751 31.6534 29.2573 31.3232 29.0367C30.993 28.8161 30.7356 28.5025 30.5836 28.1356C30.4317 27.7687 30.3919 27.365 30.4694 26.9755C30.5469 26.586 30.7381 26.2282 31.0189 25.9474C31.2997 25.6666 31.6575 25.4754 32.047 25.3979C32.4365 25.3204 32.8402 25.3602 33.2071 25.5122C33.574 25.6642 33.8876 25.9215 34.1082 26.2517C34.3288 26.5819 34.4466 26.9701 34.4466 27.3672C34.4466 27.6309 34.3946 27.892 34.2937 28.1356C34.1928 28.3792 34.0449 28.6006 33.8585 28.787C33.672 28.9735 33.4507 29.1214 33.2071 29.2223C32.9635 29.3232 32.7024 29.3751 32.4387 29.3751V29.3751ZM38.9076 29.3751C38.5108 29.3735 38.1234 29.2543 37.7943 29.0326C37.4653 28.811 37.2092 28.4969 37.0585 28.1298C36.9078 27.7628 36.8693 27.3593 36.9477 26.9704C37.0261 26.5815 37.218 26.2245 37.4991 25.9445C37.7803 25.6646 38.1381 25.4741 38.5273 25.3973C38.9166 25.3205 39.3199 25.3608 39.6863 25.513C40.0527 25.6652 40.3658 25.9226 40.586 26.2526C40.8063 26.5826 40.9238 26.9705 40.9238 27.3672C40.9238 27.6316 40.8716 27.8934 40.7702 28.1376C40.6688 28.3817 40.5201 28.6034 40.3328 28.79C40.1454 28.9766 39.9231 29.1243 39.6785 29.2247C39.4339 29.3251 39.1719 29.3762 38.9076 29.3751V29.3751Z" fill="#11375F"/>
</svg>
